<svg width="70" height="70" viewBox="0 0 70 70" fill="none" xmlns="http://www.w3.org/2000/svg">
<rect width="70" height="70" fill="white"/>
<path fill-rule="evenodd" clip-rule="evenodd" d="M65.5956 24.0625C65.5956 19.8042 65.0998 15.9833 64.954 14.5542C64.9074 14.0851 64.7667 13.6303 64.54 13.217C64.3134 12.8037 64.0057 12.4405 63.6353 12.149C63.2648 11.8576 62.8393 11.644 62.3843 11.521C61.9293 11.398 61.4541 11.3682 60.9873 11.4333C59.2759 11.6797 57.5527 11.8355 55.8248 11.9C53.7327 12.0373 51.6316 11.8802 49.5832 11.4333C47.1526 10.6025 44.8834 9.35936 42.8748 7.75833C41.2012 6.5241 39.6039 5.18972 38.0915 3.76249C37.4415 3.1471 36.5804 2.80414 35.6852 2.80414C34.7901 2.80414 33.929 3.1471 33.279 3.76249C31.7755 5.16758 30.1982 6.49168 28.554 7.72916C26.5149 9.32364 24.2293 10.5748 21.7873 11.4333C19.4969 11.9806 17.1353 12.1676 14.7873 11.9875C12.8349 11.9172 10.8876 11.7419 8.95398 11.4625C8.49228 11.4098 8.02471 11.4488 7.57811 11.5772C7.13152 11.7057 6.71469 11.9211 6.35155 12.2111C5.98841 12.501 5.68612 12.8599 5.46202 13.267C5.23791 13.6741 5.09642 14.1214 5.04565 14.5833C4.89982 16.0125 4.52065 19.8333 4.40398 24.1208C4.13858 28.376 4.40311 32.6476 5.19148 36.8375C7.39764 43.7925 11.4861 50.0009 17.004 54.775C21.3761 58.8963 26.1105 62.6155 31.1498 65.8875C32.506 66.8053 34.106 67.2959 35.7436 67.2959C37.3811 67.2959 38.9812 66.8053 40.3373 65.8875C45.0974 62.5153 49.5659 58.7493 53.6957 54.6292C58.8878 49.8157 62.7206 43.7195 64.8082 36.9542C65.6133 32.7073 65.8779 28.3757 65.5956 24.0625V24.0625ZM36.954 60.9292C36.5729 61.1939 36.12 61.3357 35.6561 61.3357C35.1921 61.3357 34.7392 61.1939 34.3582 60.9292C30.7528 58.579 27.3039 55.9972 24.0331 53.2V50.8083C24.0331 49.3682 24.3168 47.9421 24.8679 46.6116C25.4191 45.281 26.2269 44.0721 27.2452 43.0537C28.2636 42.0354 29.4725 41.2276 30.8031 40.6764C32.1336 40.1253 33.5597 39.8417 34.9998 39.8417C36.44 39.8417 37.866 40.1253 39.1966 40.6764C40.5271 41.2276 41.7361 42.0354 42.7544 43.0537C43.7728 44.0721 44.5806 45.281 45.1317 46.6116C45.6828 47.9421 45.9665 49.3682 45.9665 50.8083V53.725C43.1037 56.2981 40.0945 58.7035 36.954 60.9292V60.9292ZM34.9998 32.4917C34.1749 32.4917 33.3685 32.247 32.6826 31.7887C31.9967 31.3304 31.4621 30.6791 31.1465 29.9169C30.8308 29.1548 30.7482 28.3162 30.9091 27.5071C31.0701 26.6981 31.4673 25.9549 32.0506 25.3716C32.6339 24.7883 33.3771 24.3911 34.1861 24.2301C34.9952 24.0692 35.8338 24.1518 36.5959 24.4675C37.358 24.7832 38.0094 25.3177 38.4677 26.0036C38.926 26.6895 39.1707 27.4959 39.1707 28.3208C39.1707 29.427 38.7312 30.4879 37.949 31.2701C37.1669 32.0522 36.106 32.4917 34.9998 32.4917V32.4917ZM59.1498 35.4083C57.6757 40.2099 55.0757 44.5898 51.5665 48.1833C51.1241 45.4375 50.0081 42.8442 48.3182 40.6352C46.6284 38.4263 44.4175 36.6705 41.8832 35.525C42.8713 34.5976 43.6582 33.4769 44.1951 32.2326C44.7319 30.9882 45.0073 29.6468 45.004 28.2917C45.004 26.9779 44.7452 25.677 44.2425 24.4632C43.7397 23.2495 43.0028 22.1466 42.0738 21.2176C41.1449 20.2887 40.042 19.5518 38.8282 19.049C37.6145 18.5463 36.3136 18.2875 34.9998 18.2875C33.6861 18.2875 32.3852 18.5463 31.1714 19.049C29.9576 19.5518 28.8548 20.2887 27.9258 21.2176C26.9968 22.1466 26.2599 23.2495 25.7572 24.4632C25.2544 25.677 24.9956 26.9779 24.9956 28.2917C24.9924 29.6468 25.2677 30.9882 25.8046 32.2326C26.3414 33.4769 27.1284 34.5976 28.1165 35.525C25.6236 36.6426 23.4426 38.3543 21.7647 40.5103C20.0867 42.6662 18.9628 45.2006 18.4915 47.8917C14.9578 44.4212 12.3333 40.1338 10.8498 35.4083C10.2173 31.7304 10.0021 27.9929 10.2081 24.2667C10.2081 21.7 10.4706 19.3083 10.6456 17.5292C11.754 17.5292 13.1248 17.7625 14.5831 17.8208C17.523 18.0113 20.4746 17.7456 23.3331 17.0333C26.4909 16.0065 29.4501 14.448 32.0832 12.425C33.5415 11.3458 34.8248 10.2958 35.8165 9.50833C36.8082 10.3542 38.0915 11.4333 39.5498 12.425C42.1726 14.4639 45.1347 16.024 48.2998 17.0333C50.8994 17.6298 53.5703 17.8556 56.2332 17.7042L59.3832 17.5C59.529 19.2792 59.704 21.7 59.7915 24.2667C59.9998 28.0026 59.7845 31.75 59.1498 35.4375V35.4083Z" fill="#0C49CD"/>
<path fill-rule="evenodd" clip-rule="evenodd" d="M63.4617 14.7064L63.4613 14.7023C63.4347 14.4342 63.3543 14.1744 63.2248 13.9382C63.0953 13.702 62.9194 13.4944 62.7078 13.3279C62.4961 13.1614 62.2529 13.0393 61.9929 12.969C61.7338 12.899 61.4633 12.8818 61.1975 12.9185C59.4419 13.1712 57.6742 13.3313 55.9017 13.3982C53.6766 13.5422 51.4421 13.3742 49.2634 12.8989L49.1794 12.8805L49.098 12.8527C46.5135 11.9693 44.0998 10.6488 41.962 8.94895C40.2479 7.68344 38.6116 6.31579 37.062 4.85342L37.0602 4.85177C36.6888 4.50011 36.1967 4.30414 35.6852 4.30414C35.1737 4.30414 34.6817 4.50011 34.3102 4.85177L34.3032 4.85845C32.7641 6.29675 31.1498 7.65229 29.4669 8.9194C27.3021 10.6103 24.8763 11.9373 22.2848 12.8484L22.2115 12.8742L22.1359 12.8923C19.7039 13.4734 17.1965 13.6735 14.7032 13.4854C12.7156 13.4128 10.7334 13.2343 8.76479 12.9507C8.50553 12.9236 8.2434 12.9467 7.99276 13.0188C7.73598 13.0926 7.49632 13.2165 7.28753 13.3832C7.07873 13.5499 6.90492 13.7563 6.77607 13.9903C6.64803 14.2229 6.56688 14.4784 6.53723 14.7422C6.39191 16.1667 6.01836 19.9378 5.90343 24.1616L5.90271 24.1879L5.90107 24.2142C5.64531 28.3149 5.89648 32.4315 6.64883 36.4705C8.77765 43.1264 12.6999 49.0676 17.9854 53.6406L18.0096 53.6616L18.0329 53.6835C22.3395 57.743 27.0029 61.4065 31.9667 64.6294L31.9787 64.6372L31.9906 64.6453C33.0985 65.3951 34.4057 65.7959 35.7436 65.7959C37.0763 65.7959 38.3786 65.3982 39.4838 64.6539C44.1703 61.3327 48.5699 57.6242 52.6362 53.5673L52.6557 53.5478L52.6759 53.5291C57.6543 48.9138 61.3346 43.0736 63.35 36.592C64.1194 32.496 64.371 28.3194 64.0989 24.1604L65.5956 24.0625C65.8779 28.3757 65.6133 32.7073 64.8082 36.9542C62.7206 43.7195 58.8878 49.8157 53.6957 54.6292C49.5659 58.7493 45.0974 62.5153 40.3373 65.8875C38.9812 66.8053 37.3811 67.2959 35.7436 67.2959C34.106 67.2959 32.506 66.8053 31.1498 65.8875C26.1105 62.6155 21.3761 58.8963 17.004 54.775C11.4861 50.0009 7.39764 43.7924 5.19148 36.8375C4.40311 32.6476 4.13858 28.376 4.40398 24.1208C4.52065 19.8333 4.89982 16.0125 5.04565 14.5833C5.09642 14.1214 5.23791 13.6741 5.46202 13.267C5.68612 12.8599 5.98841 12.501 6.35155 12.2111C6.71469 11.9211 7.13152 11.7057 7.57811 11.5772C8.02471 11.4488 8.49228 11.4098 8.95398 11.4625C10.8876 11.7419 12.8349 11.9172 14.7873 11.9875C17.1353 12.1676 19.4969 11.9806 21.7873 11.4333C24.2293 10.5748 26.5149 9.32364 28.554 7.72916C30.1982 6.49168 31.7755 5.16758 33.279 3.76249C33.929 3.1471 34.7901 2.80414 35.6852 2.80414C36.5804 2.80414 37.4415 3.1471 38.0915 3.76249C39.6039 5.18972 41.2012 6.5241 42.8748 7.75833C44.8834 9.35936 47.1526 10.6025 49.5832 11.4333C51.6316 11.8802 53.7327 12.0373 55.8248 11.9C57.5527 11.8355 59.2759 11.6797 60.9873 11.4333C61.4541 11.3682 61.9293 11.398 62.3843 11.521C62.8393 11.644 63.2648 11.8576 63.6353 12.149C64.0057 12.4405 64.3134 12.8037 64.54 13.217C64.7667 13.6303 64.9074 14.0851 64.954 14.5542C64.9739 14.7497 65.0004 14.9899 65.0313 15.2699C65.2262 17.0368 65.5956 20.3866 65.5956 24.0625H64.0956C64.0956 20.4777 63.7366 17.2177 63.5412 15.4432C63.5098 15.1575 63.4825 14.9103 63.4617 14.7064ZM22.5331 53.8909V50.8083C22.5331 49.1712 22.8556 47.5501 23.4821 46.0375C24.1086 44.525 25.0269 43.1507 26.1846 41.9931C27.3422 40.8354 28.7165 39.9171 30.229 39.2906C31.7416 38.6641 33.3627 38.3417 34.9998 38.3417C36.637 38.3417 38.2581 38.6641 39.7706 39.2906C41.2831 39.9171 42.6574 40.8354 43.8151 41.9931C44.9727 43.1507 45.891 44.525 46.5175 46.0375C47.144 47.5501 47.4665 49.1712 47.4665 50.8083V54.3936L46.9692 54.8406C44.0634 57.4524 41.009 59.8939 37.8213 62.153L36.954 60.9292C40.0945 58.7035 43.1037 56.2981 45.9665 53.725V50.8083C45.9665 49.3682 45.6828 47.9421 45.1317 46.6116C44.5806 45.281 43.7728 44.0721 42.7544 43.0537C41.7361 42.0354 40.5271 41.2276 39.1966 40.6764C37.866 40.1253 36.44 39.8417 34.9998 39.8417C33.5597 39.8417 32.1336 40.1253 30.8031 40.6764C29.4725 41.2276 28.2636 42.0354 27.2452 43.0537C26.2269 44.0721 25.4191 45.281 24.8679 46.6116C24.3168 47.9421 24.0331 49.3682 24.0331 50.8083V53.2C27.3039 55.9972 30.7528 58.579 34.3582 60.9292C34.7392 61.1939 35.1921 61.3357 35.6561 61.3357C36.12 61.3357 36.5729 61.1939 36.954 60.9292L37.8098 62.1611C37.1774 62.6003 36.426 62.8357 35.6561 62.8357C34.8944 62.8357 34.1508 62.6054 33.5228 62.1752C29.8689 59.7924 26.3734 57.1752 23.0582 54.34L22.5331 53.8909ZM59.1546 35.4098C59.1547 35.4093 59.1548 35.4088 59.1548 35.4083C59.1673 35.3354 59.1797 35.2625 59.1918 35.1896C59.7939 31.5821 59.9951 27.9189 59.7915 24.2667C59.704 21.7 59.529 19.2793 59.3832 17.5001C59.3832 17.5001 59.3832 17.5001 59.3832 17.5001L56.2332 17.7042C53.5703 17.8556 50.8994 17.6298 48.2998 17.0333C45.1347 16.024 42.1726 14.4639 39.5498 12.425C38.0915 11.4333 36.8082 10.3542 35.8165 9.50833C35.6103 9.67206 35.3915 9.84714 35.1612 10.0315C34.2836 10.7337 33.2383 11.5702 32.0832 12.425C29.4501 14.448 26.4909 16.0065 23.3331 17.0333C20.4746 17.7456 17.523 18.0113 14.5831 17.8208C13.898 17.7934 13.2322 17.7274 12.6039 17.6651C11.8947 17.5948 11.2333 17.5292 10.6456 17.5292C10.6305 17.6828 10.6148 17.8411 10.5986 18.0037C10.4273 19.7228 10.2081 21.9217 10.2081 24.2667C10.0021 27.9929 10.2173 31.7304 10.8498 35.4083C12.1512 39.5535 14.3305 43.3616 17.2313 46.577C17.6374 47.027 18.0576 47.4655 18.4915 47.8917C18.594 47.3063 18.7274 46.7284 18.8907 46.1602C19.478 44.116 20.4517 42.1973 21.7647 40.5103C23.1178 38.7717 24.7979 37.3221 26.705 36.2399C27.1629 35.98 27.6338 35.7414 28.1165 35.525C27.733 35.1651 27.3799 34.7761 27.0599 34.362C26.5553 33.7091 26.1331 32.994 25.8046 32.2326C25.2677 30.9882 24.9924 29.6468 24.9956 28.2917C24.9956 26.9779 25.2544 25.677 25.7572 24.4632C26.2599 23.2495 26.9968 22.1466 27.9258 21.2176C28.8548 20.2887 29.9576 19.5518 31.1714 19.049C32.3852 18.5463 33.6861 18.2875 34.9998 18.2875C36.3136 18.2875 37.6145 18.5463 38.8282 19.049C40.042 19.5518 41.1449 20.2887 42.0738 21.2176C43.0028 22.1466 43.7397 23.2495 44.2425 24.4632C44.7452 25.677 45.004 26.9779 45.004 28.2917C45.0073 29.6468 44.7319 30.9882 44.1951 32.2326C43.8664 32.9944 43.4439 33.7099 42.9389 34.3631C42.6192 34.7767 42.2663 35.1654 41.8832 35.525C42.3647 35.7427 42.8346 35.9824 43.2915 36.243C45.2389 37.3541 46.9495 38.846 48.3182 40.6352C49.6387 42.3614 50.6089 44.3223 51.1809 46.4073C51.3409 46.9904 51.4698 47.5832 51.5665 48.1833C52.0012 47.7382 52.4219 47.2811 52.8282 46.8125C55.6676 43.5386 57.8058 39.7095 59.1023 35.5616C59.1153 35.5203 59.1281 35.4789 59.1409 35.4375C59.141 35.437 59.1412 35.4365 59.1413 35.436C59.1441 35.4268 59.147 35.4176 59.1498 35.4083V35.4375C59.1514 35.4283 59.153 35.419 59.1546 35.4098ZM59.8598 35.6263L60.5838 35.8486C59.0395 40.8786 56.3159 45.4669 52.6397 49.2313L50.5592 51.3617L50.0856 48.4219C49.6826 45.9209 48.6661 43.5587 47.1269 41.5466C45.5877 39.5345 43.5738 37.9353 41.2653 36.8919L39.22 35.9674L40.8566 34.4313C41.6948 33.6445 42.3624 32.6939 42.8178 31.6383C43.2732 30.5828 43.5068 29.4449 43.504 28.2953L43.504 28.2917C43.504 27.1749 43.284 26.069 42.8566 25.0373C42.4293 24.0055 41.8029 23.068 41.0132 22.2783C40.2235 21.4886 39.286 20.8622 38.2542 20.4348C37.2224 20.0075 36.1166 19.7875 34.9998 19.7875C33.883 19.7875 32.7772 20.0075 31.7454 20.4348C30.7136 20.8622 29.7762 21.4886 28.9865 22.2783C28.1968 23.068 27.5704 24.0055 27.143 25.0373C26.7156 26.069 26.4956 27.1749 26.4956 28.2917V28.2953C26.4929 29.4449 26.7264 30.5828 27.1818 31.6383C27.6373 32.6939 28.3048 33.6445 29.143 34.4313L30.7851 35.9725L28.7301 36.8937C26.4609 37.911 24.4758 39.4691 22.9484 41.4316C21.421 43.394 20.398 45.701 19.969 48.1505L19.4766 50.9616L17.4404 48.9618C13.731 45.3187 10.976 40.8181 9.41868 35.8576L9.38856 35.7617L9.37152 35.6626C8.72222 31.887 8.49972 28.0504 8.70817 24.2251C8.71074 21.8172 8.93555 19.5632 9.10556 17.8586C9.12191 17.6947 9.13776 17.5358 9.15285 17.3823L9.28595 16.0292H10.6456C11.2862 16.0292 11.9799 16.096 12.6308 16.1604C12.6678 16.1641 12.7047 16.1677 12.7416 16.1714C13.3787 16.2345 14.0037 16.2964 14.6431 16.322L14.6616 16.3228L14.6801 16.324C17.448 16.5033 20.2269 16.2559 22.9194 15.5905C25.8959 14.6163 28.6855 13.1438 31.1693 11.2355L31.18 11.2273L31.1909 11.2192C32.3207 10.3831 33.3375 9.56959 34.2134 8.86867C34.447 8.68176 34.6706 8.50285 34.8837 8.33366L35.8505 7.56585L36.7899 8.36707C37.7781 9.20993 39.008 10.2426 40.3933 11.1846L40.4328 11.2114L40.4704 11.2407C42.9375 13.1586 45.7215 14.6289 48.6961 15.5852C51.1368 16.1392 53.6431 16.3485 56.1421 16.2069C56.144 16.2068 56.146 16.2067 56.148 16.2066L60.7577 15.9078L60.8781 17.3775C61.0246 19.1645 61.2012 21.6053 61.2901 24.1995C61.5031 28.043 61.2811 31.8983 60.6281 35.6919L59.8598 35.6263ZM34.9998 33.9917C33.8782 33.9917 32.7818 33.6591 31.8493 33.0359C30.9167 32.4128 30.1899 31.5272 29.7607 30.491C29.3314 29.4548 29.2191 28.3145 29.4379 27.2145C29.6568 26.1145 30.1969 25.104 30.9899 24.3109C31.783 23.5179 32.7935 22.9778 33.8935 22.759C34.9935 22.5401 36.1337 22.6524 37.17 23.0817C38.2062 23.5109 39.0918 24.2377 39.7149 25.1703C40.3381 26.1028 40.6707 27.1992 40.6707 28.3208C40.6707 29.8248 40.0732 31.2672 39.0097 32.3307C37.9462 33.3942 36.5038 33.9917 34.9998 33.9917ZM32.6826 31.7887C33.3685 32.247 34.1749 32.4917 34.9998 32.4917C36.106 32.4917 37.1669 32.0522 37.949 31.2701C38.7312 30.4879 39.1707 29.427 39.1707 28.3208C39.1707 27.4959 38.926 26.6895 38.4677 26.0036C38.0094 25.3177 37.358 24.7832 36.5959 24.4675C35.8338 24.1518 34.9952 24.0692 34.1861 24.2301C33.3771 24.3911 32.6339 24.7883 32.0506 25.3716C31.4673 25.9549 31.0701 26.6981 30.9091 27.5071C30.7482 28.3162 30.8308 29.1548 31.1465 29.9169C31.4622 30.6791 31.9967 31.3304 32.6826 31.7887Z" stroke="#fff" fill="#fff"/>
</svg>
