<svg width="72" height="72" viewBox="0 0 72 72" fill="none" xmlns="http://www.w3.org/2000/svg">
<path d="M50.25 22.1702V22.9202H51H60C62.1739 22.9201 64.2599 23.7779 65.8047 25.3073C67.3486 26.8358 68.2273 28.9116 68.25 31.0839V49.0802C68.25 51.2682 67.3808 53.3666 65.8336 54.9138C64.2865 56.461 62.188 57.3302 60 57.3302H56.46H56.1217L55.8978 57.5837L51.3678 62.7137L51.3675 62.7141C51.0156 63.1131 50.5828 63.4327 50.0979 63.6516C49.613 63.8705 49.087 63.9837 48.555 63.9837C48.023 63.9837 47.497 63.8705 47.0121 63.6516C46.5272 63.4327 46.0944 63.1131 45.7425 62.7141L45.7422 62.7137L41.2122 57.5837L40.9883 57.3302H40.65H30C27.812 57.3302 25.7135 56.461 24.1664 54.9138C22.6192 53.3666 21.75 51.2682 21.75 49.0802V48.0002V47.7122L21.5573 47.4982L17.2073 42.6682L16.9839 42.4202H16.65H12C9.81196 42.4202 7.71354 41.551 6.16637 40.0038C4.61919 38.4566 3.75 36.3582 3.75 34.1702V16.1702C3.75 13.9821 4.61919 11.8837 6.16637 10.3365C7.71354 8.78936 9.81196 7.92017 12 7.92017H42C44.188 7.92017 46.2865 8.78936 47.8336 10.3365C49.3808 11.8837 50.25 13.9821 50.25 16.1702V22.1702ZM24.0042 43.6624L24.57 44.3128L25.1358 43.6624L30.1316 37.9202H42C42.9946 37.9202 43.9484 37.5251 44.6516 36.8218C45.3549 36.1186 45.75 35.1647 45.75 34.1702V16.1702C45.75 15.1756 45.3549 14.2218 44.6516 13.5185C43.9484 12.8153 42.9946 12.4202 42 12.4202H12C11.0054 12.4202 10.0516 12.8153 9.34835 13.5185C8.64509 14.2218 8.25 15.1756 8.25 16.1702V34.1702C8.25 35.1647 8.64509 36.1185 9.34835 36.8218C10.0516 37.5251 11.0054 37.9202 12 37.9202H19.0084L24.0042 43.6624ZM47.9947 58.8914L48.57 59.579L49.1453 58.8914L54.1404 52.9202H60C60.9946 52.9202 61.9484 52.5251 62.6516 51.8218C63.3549 51.1185 63.75 50.1647 63.75 49.1702V31.2302C63.75 30.2356 63.3549 29.2818 62.6517 28.5785C61.9484 27.8752 60.9946 27.4802 60 27.4802H51H50.25V28.2302V34.2302C50.25 36.4182 49.3808 38.5166 47.8336 40.0638C46.2865 41.611 44.188 42.4802 42 42.4802H32.46H32.1217L31.8978 42.7337L27.368 47.8635C27.1379 48.1239 26.8747 48.3531 26.5852 48.5453L26.25 48.7678V49.1702C26.25 50.1647 26.6451 51.1185 27.3484 51.8218C28.0516 52.5251 29.0054 52.9202 30 52.9202H42.9996L47.9947 58.8914Z" fill="#0C49CD" stroke="white" stroke-width="1.5"/>
</svg>
