<svg xmlns="http://www.w3.org/2000/svg" style="display:none"><symbol id="help-icon-01" viewBox="0 0 67 67"><path d="M46.128 6.735l10.497 15.076a7.776 7.776 0 0 1 1.4 4.432v29.59a7.775 7.775 0 0 1-7.775 7.775h-33.5a7.775 7.775 0 0 1-7.775-7.775V11.167a7.775 7.775 0 0 1 7.775-7.775h23.003a7.774 7.774 0 0 1 3.597.889l.278-.53-.278.53a7.773 7.773 0 0 1 2.778 2.454zm-6.374 1.04H16.75a3.392 3.392 0 0 0-3.392 3.392v44.666a3.392 3.392 0 0 0 3.392 3.392h33.5a3.392 3.392 0 0 0 3.392-3.392V26.24a3.392 3.392 0 0 0-.61-1.933L42.535 9.233l-.494.342.493-.342a3.392 3.392 0 0 0-2.78-1.458z" fill="#0C49CD" stroke="#fff" stroke-width="1.2"/><path d="M35.691 33.5v.6h9.785c.297 0 .629.171.91.567.28.395.472.968.472 1.625 0 .656-.192 1.23-.472 1.624-.281.396-.613.567-.91.567H35.692v9.785c0 .297-.172.629-.568.91-.394.28-.968.472-1.624.472-.657 0-1.23-.192-1.624-.472-.397-.281-.568-.613-.568-.91v-9.785H21.524c-.297 0-.629-.17-.91-.567-.28-.394-.473-.968-.473-1.624 0-.657.193-1.23.472-1.625.282-.396.614-.567.91-.567h9.785v-9.785c0-.297.171-.628.568-.91.394-.28.967-.472 1.624-.472.656 0 1.23.192 1.624.472.396.282.567.613.567.91V33.5z" fill="#0C49CD" stroke="#fff" stroke-width="1.2"/></symbol><symbol id="help-icon-02" viewBox="0 0 72 72"><path d="M50.25 22.17v.75H60a8.25 8.25 0 0 1 8.25 8.164V49.08A8.25 8.25 0 0 1 60 57.33h-3.878l-.224.254-4.53 5.13a3.75 3.75 0 0 1-5.626 0l-4.53-5.13-.224-.254H30a8.25 8.25 0 0 1-8.25-8.25v-1.368l-.193-.214-4.35-4.83-.223-.248H12a8.25 8.25 0 0 1-8.25-8.25v-18A8.25 8.25 0 0 1 12 7.92h30a8.25 8.25 0 0 1 8.25 8.25v6zM24.004 43.662l.566.65.566-.65 4.996-5.742H42a3.75 3.75 0 0 0 3.75-3.75v-18A3.75 3.75 0 0 0 42 12.42H12a3.75 3.75 0 0 0-3.75 3.75v18A3.75 3.75 0 0 0 12 37.92h7.008l4.996 5.742zm23.99 15.23l.576.687.575-.688 4.995-5.97H60a3.75 3.75 0 0 0 3.75-3.75V31.23A3.75 3.75 0 0 0 60 27.48h-9.75v6.75A8.25 8.25 0 0 1 42 42.48H32.122l-.224.253-4.53 5.13c-.23.26-.493.49-.783.681l-.335.223v.402A3.75 3.75 0 0 0 30 52.92h13l4.995 5.971z" fill="#0C49CD" stroke="#fff" stroke-width="1.5"/></symbol><symbol id="help-icon-03" viewBox="0 0 63 63"><path d="M14.928 48.835l-.01-.009-.009-.008A35.179 35.179 0 0 1 4.468 33.033a45.705 45.705 0 0 1-.693-11.26v-.01l.001-.011c.104-3.836.444-7.256.575-8.566a2.55 2.55 0 0 1 .298-.963l-.527-.287.527.287a2.55 2.55 0 0 1 2.543-1.312c1.755.254 3.523.413 5.296.477a20.995 20.995 0 0 0 6.473-.514l.03-.007.03-.01a22.019 22.019 0 0 0 6.254-3.423A52.828 52.828 0 0 0 29.65 3.8l.005-.005a2.55 2.55 0 0 1 3.506 0 46.978 46.978 0 0 0 4.353 3.637 21.05 21.05 0 0 0 6.207 3.398l.018.007.018.005a2.027 2.027 0 0 1-1.062 3.912 24.812 24.812 0 0 1-7.677-4.046l-.015-.011-.016-.011C33.704 9.814 32.571 8.86 31.68 8.1l-.375-.32-.387.307-.596.476c-.79.631-1.718 1.375-2.748 2.137l-.006.004-.005.004a25.652 25.652 0 0 1-7.518 4.045 25.097 25.097 0 0 1-7.668.686h-.015c-.598-.024-1.18-.082-1.75-.138l-.104-.01c-.593-.06-1.18-.115-1.713-.115H8.25l-.053.54-.043.429c-.153 1.54-.353 3.542-.354 5.677a45.225 45.225 0 0 0 .586 10.252l.008.045.015.044a31.26 31.26 0 0 0 9.329 13.827A85.23 85.23 0 0 0 29.8 55.466a2.647 2.647 0 0 0 3.012-.005l.003-.002a87.23 87.23 0 0 0 11.41-9.56 32.284 32.284 0 0 0 8.792-13.687l.007-.023.006-.023a2.025 2.025 0 0 1 2.43-1.499h.002a2.025 2.025 0 0 1 1.523 2.41A35.994 35.994 0 0 1 47.13 48.7l-.007.007-.008.008a93.162 93.162 0 0 1-11.94 10.063 6.777 6.777 0 0 1-7.591-.003l-.01-.006a89.464 89.464 0 0 1-12.646-9.935z" fill="#0C49CD" stroke="#fff" stroke-width="1.2"/><path d="M30.71 21.95l.002.002 6.825 5.933.41.356.396-.372 17.533-16.537h.001a2.028 2.028 0 0 1 2.775 2.957L39.447 32.314a2.524 2.524 0 0 1-3.51-.241l-.023-.026-.026-.022-7.874-7.009-.003-.002a2.041 2.041 0 0 1 2.698-3.063z" fill="#0C49CD" stroke="#fff" stroke-width="1.2"/></symbol><symbol id="help-icon-04" viewBox="0 0 70 70"><path fill="#fff" d="M0 0h70v70H0z"/><path fill-rule="evenodd" clip-rule="evenodd" d="M65.596 24.063c0-4.259-.496-8.08-.642-9.509a3.5 3.5 0 0 0-3.967-3.12 49.071 49.071 0 0 1-5.162.466 22.4 22.4 0 0 1-6.242-.467 22.37 22.37 0 0 1-6.708-3.675 51.541 51.541 0 0 1-4.783-3.996 3.5 3.5 0 0 0-4.813 0 58.014 58.014 0 0 1-4.725 3.967 23.799 23.799 0 0 1-6.767 3.704c-2.29.548-4.652.735-7 .555-1.952-.07-3.9-.246-5.833-.525a3.53 3.53 0 0 0-3.908 3.12c-.146 1.43-.525 5.25-.642 9.538a51.45 51.45 0 0 0 .787 12.716 39.52 39.52 0 0 0 11.813 17.938A100.074 100.074 0 0 0 31.15 65.888a8.196 8.196 0 0 0 9.187 0 104.196 104.196 0 0 0 13.359-11.259 40.31 40.31 0 0 0 11.112-17.675 51.246 51.246 0 0 0 .788-12.892zM36.954 60.928a2.275 2.275 0 0 1-2.596 0A99.412 99.412 0 0 1 24.033 53.2v-2.392a10.967 10.967 0 0 1 21.934 0v2.917a99.859 99.859 0 0 1-9.013 7.204zM35 32.492a4.171 4.171 0 1 1 0-8.342 4.171 4.171 0 0 1 0 8.342zm24.15 2.916a31.53 31.53 0 0 1-7.584 12.775 16.828 16.828 0 0 0-9.683-12.658 9.888 9.888 0 0 0 3.121-7.233 10.006 10.006 0 0 0-17.078-7.074 10.004 10.004 0 0 0-2.93 7.074 9.889 9.889 0 0 0 3.12 7.233 16.711 16.711 0 0 0-9.625 12.367 30.158 30.158 0 0 1-7.641-12.484 49.587 49.587 0 0 1-.642-11.141c0-2.567.263-4.959.438-6.738 1.108 0 2.479.233 3.937.292 2.94.19 5.892-.075 8.75-.788a29.165 29.165 0 0 0 8.75-4.608c1.459-1.08 2.742-2.13 3.733-2.917.992.846 2.276 1.925 3.734 2.917a28.232 28.232 0 0 0 8.75 4.608c2.6.597 5.27.823 7.933.671l3.15-.204c.146 1.78.321 4.2.408 6.767a49.582 49.582 0 0 1-.641 11.17v-.029z" fill="#0C49CD"/><path fill-rule="evenodd" clip-rule="evenodd" d="M63.462 14.706v-.004a2 2 0 0 0-2.265-1.784 50.554 50.554 0 0 1-5.295.48 23.903 23.903 0 0 1-6.639-.5l-.084-.018-.081-.027a23.872 23.872 0 0 1-7.136-3.904 53.04 53.04 0 0 1-4.9-4.096l-.002-.001a2 2 0 0 0-2.75 0l-.007.006a59.502 59.502 0 0 1-4.836 4.061 25.298 25.298 0 0 1-7.182 3.93l-.073.025-.076.018c-2.432.581-4.94.782-7.433.593a55.976 55.976 0 0 1-5.938-.534 2.03 2.03 0 0 0-2.228 1.791c-.145 1.425-.519 5.196-.634 9.42v.026l-.002.026a49.95 49.95 0 0 0 .748 12.257 38.02 38.02 0 0 0 11.336 17.17l.025.02.023.023a98.571 98.571 0 0 0 13.934 10.945l.012.008.012.008a6.696 6.696 0 0 0 7.493.009 102.684 102.684 0 0 0 13.152-11.087l.02-.02.02-.018A38.809 38.809 0 0 0 63.35 36.592a49.747 49.747 0 0 0 .749-12.432l1.497-.098a51.246 51.246 0 0 1-.788 12.892A40.31 40.31 0 0 1 53.696 54.63a104.196 104.196 0 0 1-13.359 11.259 8.196 8.196 0 0 1-9.187 0 100.074 100.074 0 0 1-14.146-11.113A39.52 39.52 0 0 1 5.191 36.837a51.45 51.45 0 0 1-.787-12.716c.117-4.288.496-8.108.642-9.538a3.529 3.529 0 0 1 3.908-3.12c1.934.279 3.88.454 5.833.525 2.348.18 4.71-.007 7-.555a23.799 23.799 0 0 0 6.767-3.704 58.014 58.014 0 0 0 4.725-3.967 3.5 3.5 0 0 1 4.813 0 51.541 51.541 0 0 0 4.783 3.996 22.37 22.37 0 0 0 6.708 3.675 22.4 22.4 0 0 0 6.242.467 49.071 49.071 0 0 0 5.162-.467 3.5 3.5 0 0 1 3.967 3.121c.02.196.046.436.077.716.195 1.767.565 5.117.565 8.793h-1.5c0-3.585-.36-6.845-.555-8.62l-.08-.737zM22.533 53.891v-3.083a12.467 12.467 0 0 1 24.934 0v3.586l-.498.447a101.34 101.34 0 0 1-9.148 7.312l-.867-1.224a99.859 99.859 0 0 0 9.013-7.204v-2.917a10.967 10.967 0 0 0-21.934 0V53.2a99.412 99.412 0 0 0 10.325 7.73 2.275 2.275 0 0 0 2.596 0l.856 1.231a3.775 3.775 0 0 1-4.287.014c-3.654-2.383-7.15-5-10.465-7.835l-.525-.45zM59.155 35.41v-.002l.037-.218c.602-3.608.803-7.271.6-10.923a143.953 143.953 0 0 0-.409-6.767l-3.15.204a28.292 28.292 0 0 1-7.933-.67 28.232 28.232 0 0 1-8.75-4.609c-1.458-.992-2.742-2.07-3.733-2.917-.207.164-.425.34-.656.524-.877.702-1.923 1.538-3.078 2.393a29.165 29.165 0 0 1-8.75 4.608c-2.858.713-5.81.978-8.75.788a33.47 33.47 0 0 1-1.98-.156c-.708-.07-1.37-.136-1.957-.136l-.047.475c-.172 1.719-.39 3.918-.39 6.263-.207 3.726.008 7.463.64 11.141a30.16 30.16 0 0 0 7.642 12.484 16.689 16.689 0 0 1 3.274-7.382 16.71 16.71 0 0 1 6.351-4.985 9.878 9.878 0 0 1-2.311-3.292 10.004 10.004 0 1 1 19.2-3.94 9.889 9.889 0 0 1-3.122 7.232 16.83 16.83 0 0 1 9.683 12.658 31.528 31.528 0 0 0 7.574-12.746l.001-.001.009-.028v.03l.005-.028zm.705.216l.724.223A33.029 33.029 0 0 1 52.64 49.23l-2.08 2.13-.474-2.94a15.33 15.33 0 0 0-8.82-11.53l-2.046-.924 1.637-1.536a8.388 8.388 0 0 0 2.647-6.136v-.003a8.503 8.503 0 1 0-17.008 0v.003a8.389 8.389 0 0 0 2.647 6.136l1.642 1.541-2.055.922A15.212 15.212 0 0 0 19.97 48.15l-.492 2.81-2.037-2A31.658 31.658 0 0 1 9.42 35.859l-.03-.096-.017-.1a51.084 51.084 0 0 1-.664-11.437c.003-2.408.228-4.662.398-6.366l.047-.477.133-1.353h1.36c.64 0 1.334.067 1.985.131l.11.011c.638.064 1.263.125 1.902.151h.019l.018.002c2.768.18 5.547-.068 8.24-.734a27.667 27.667 0 0 0 8.25-4.354l.01-.009.01-.008a99.115 99.115 0 0 0 3.023-2.35l.67-.535.967-.768.94.801c.988.843 2.218 1.876 3.603 2.818l.04.026.037.03a26.733 26.733 0 0 0 8.226 4.344c2.44.554 4.947.764 7.446.622h.006l4.61-.3.12 1.47c.147 1.788.323 4.228.412 6.823a51.084 51.084 0 0 1-.662 11.492l-.768-.066zM35 33.992a5.67 5.67 0 1 1 0-11.34 5.67 5.67 0 0 1 0 11.34zm-2.317-2.203a4.171 4.171 0 1 0 4.634-6.936 4.171 4.171 0 0 0-4.634 6.936z" stroke="#fff" fill="#fff"/></symbol><symbol id="help-icon-05" viewBox="0 0 59 63"><path fill-rule="evenodd" clip-rule="evenodd" d="M12.275 50.4a95.784 95.784 0 0 0 13.54 10.636 7.845 7.845 0 0 0 8.793 0A99.71 99.71 0 0 0 47.395 50.26a38.582 38.582 0 0 0 10.637-16.917c.756-4.01 1.01-8.1.753-12.172 0-4.076-.474-7.733-.614-9.101a3.349 3.349 0 0 0-3.797-2.987 46.959 46.959 0 0 1-4.94.447 21.44 21.44 0 0 1-5.975-.587 21.412 21.412 0 0 1-6.42-3.517 49.318 49.318 0 0 1-4.58-3.825 3.35 3.35 0 0 0-4.605 0 55.522 55.522 0 0 1-4.523 3.797 22.78 22.78 0 0 1-6.476 3.545 21.691 21.691 0 0 1-6.7.53 52.175 52.175 0 0 1-5.584-.502 3.35 3.35 0 0 0-3.74 2.987c-.14 1.396-.503 5.053-.615 9.157-.254 4.073 0 8.161.754 12.172A37.827 37.827 0 0 0 12.275 50.4zM5.771 21.227c0-2.457.25-4.746.418-6.45 1.061 0 2.373.224 3.769.28a27.33 27.33 0 0 0 8.375-.754 27.917 27.917 0 0 0 8.375-4.41c1.396-1.033 2.624-2.038 3.573-2.792.95.81 2.178 1.842 3.574 2.791a27.024 27.024 0 0 0 8.375 4.411c2.488.571 5.044.787 7.593.642l3.015-.195c.14 1.703.307 4.02.39 6.477a47.46 47.46 0 0 1-.613 10.692 33.696 33.696 0 0 1-9.157 14.293 92.135 92.135 0 0 1-12.06 10.106 2.177 2.177 0 0 1-2.485 0 89.993 89.993 0 0 1-12.757-10.022 32.606 32.606 0 0 1-9.743-14.433 47.458 47.458 0 0 1-.642-10.636z" fill="#0C49CD"/><path fill-rule="evenodd" clip-rule="evenodd" d="M26.644 59.786l.012.008a6.345 6.345 0 0 0 7.1.008 98.217 98.217 0 0 0 12.579-10.604l.02-.02.02-.018a37.08 37.08 0 0 0 10.197-16.18c.721-3.86.962-7.795.715-11.715l-.003-.047v-.047c0-3.427-.343-6.544-.53-8.243a90.8 90.8 0 0 1-.076-.706v-.004a1.852 1.852 0 0 0-2.094-1.65 48.447 48.447 0 0 1-5.092.46 22.936 22.936 0 0 1-6.388-.627l-.066-.016-.065-.022a22.91 22.91 0 0 1-6.849-3.747 50.819 50.819 0 0 1-4.695-3.924l-.001-.001a1.85 1.85 0 0 0-2.544 0l-.007.006a57.026 57.026 0 0 1-4.634 3.891 24.28 24.28 0 0 1-6.892 3.77l-.073.026-.076.018c-2.334.558-4.74.75-7.133.57a53.702 53.702 0 0 1-5.695-.513 1.848 1.848 0 0 0-2.052 1.65c-.14 1.39-.497 5.001-.607 9.047l-.001.026-.002.026a47.745 47.745 0 0 0 .714 11.71 36.327 36.327 0 0 0 10.83 16.346l-.98 1.136A37.827 37.827 0 0 1 .968 33.287a49.245 49.245 0 0 1-.754-12.172c.112-4.104.475-7.76.614-9.157A3.35 3.35 0 0 1 4.57 8.971c1.85.268 3.715.435 5.583.503a21.691 21.691 0 0 0 6.7-.53 22.78 22.78 0 0 0 6.477-3.546A55.522 55.522 0 0 0 27.853 1.6a3.35 3.35 0 0 1 4.606 0 49.318 49.318 0 0 0 4.578 3.825 21.412 21.412 0 0 0 6.421 3.517 21.44 21.44 0 0 0 5.974.587 46.959 46.959 0 0 0 4.941-.447 3.35 3.35 0 0 1 3.797 2.987l.074.685c.187 1.691.54 4.897.54 8.416a49.048 49.048 0 0 1-.753 12.172A38.582 38.582 0 0 1 47.394 50.26 99.71 99.71 0 0 1 34.61 61.036a7.845 7.845 0 0 1-8.794 0A95.784 95.784 0 0 1 12.275 50.4l1.029-1.092a94.29 94.29 0 0 0 13.328 10.47l.012.008zM4.83 13.278h1.36c.616 0 1.283.064 1.906.126l.105.01c.61.06 1.207.12 1.817.144l.018.001.019.001a25.83 25.83 0 0 0 7.864-.7 26.416 26.416 0 0 0 7.875-4.157l.01-.008.012-.008c1.08-.8 2.052-1.577 2.89-2.248.224-.18.438-.35.643-.513l.966-.768.94.802c.945.806 2.12 1.793 3.443 2.692l.04.027.037.03a25.524 25.524 0 0 0 7.851 4.146c2.33.529 4.721.728 7.106.593h.006l4.475-.29.12 1.47c.14 1.71.31 4.047.395 6.531a48.96 48.96 0 0 1-.635 11.014l-.019.107-.033.104a35.196 35.196 0 0 1-9.544 14.91A93.636 93.636 0 0 1 32.26 57.547l-.006.004a3.678 3.678 0 0 1-4.174.015 91.49 91.49 0 0 1-12.927-10.153A34.107 34.107 0 0 1 4.99 32.34l-.036-.108-.019-.111a48.959 48.959 0 0 1-.664-10.934c.002-2.308.218-4.469.38-6.1l.046-.456.133-1.353zm11.326 33.018a89.993 89.993 0 0 0 12.758 10.022 2.177 2.177 0 0 0 2.484 0c4.3-3.019 8.336-6.4 12.06-10.106a33.696 33.696 0 0 0 9.157-14.293 47.46 47.46 0 0 0 .614-10.692 137.922 137.922 0 0 0-.39-6.477l-3.016.195a27.078 27.078 0 0 1-7.593-.642 27.024 27.024 0 0 1-8.375-4.41C32.459 8.942 31.23 7.91 30.28 7.1l-.627.5c-.84.673-1.84 1.473-2.946 2.291a27.917 27.917 0 0 1-8.375 4.411 27.33 27.33 0 0 1-8.375.754c-.656-.026-1.293-.09-1.894-.149-.68-.067-1.312-.13-1.875-.13l-.045.454c-.164 1.646-.373 3.75-.373 5.995-.186 3.558.029 7.126.642 10.636a32.606 32.606 0 0 0 9.743 14.433z" fill="#fff"/></symbol><symbol id="help-icon-06" viewBox="0 0 69 69"><path d="M8.625 58.25h51.75a2.125 2.125 0 0 1 0 4.25H8.625a2.125 2.125 0 0 1 0-4.25zM12.25 51.75V31.625a2.125 2.125 0 0 1 3.628-1.503l.53-.53-.53.53c.398.399.622.94.622 1.503V51.75a2.125 2.125 0 0 1-4.25 0zM26.625 51.75V31.625a2.125 2.125 0 0 1 3.628-1.503l.53-.53-.53.53c.398.399.622.94.622 1.503V51.75a2.125 2.125 0 0 1-4.25 0zM41 51.75V31.625a2.125 2.125 0 0 1 3.628-1.503l.53-.53-.53.53c.398.399.622.94.622 1.503V51.75a2.125 2.125 0 0 1-4.25 0zM55.375 51.75V31.625a2.125 2.125 0 0 1 4.25 0V51.75a2.125 2.125 0 0 1-4.25 0zM10.954 25.125h-.023A3.563 3.563 0 0 1 9.007 18.5l.004-.002L31.838 4.812a5 5 0 0 1 5.15 0l.004.002 23 13.685a3.562 3.562 0 0 1-1.923 6.627H10.954zM34.886 8.471L34.5 8.24l-.386.23-18.37 11.012-2.325 1.393H55.58l-2.324-1.393L34.886 8.471z" fill="#0C49CD" stroke="#fff" stroke-width="1.5"/></symbol><symbol id="temp-icon-left-arrow" viewBox="0 0 31.494 31.494"><path d="M10.273 5.01a1.117 1.117 0 0 1 1.587 1.57l-8.047 8.047h26.554c.62 0 1.127.492 1.127 1.11 0 .62-.508 1.128-1.127 1.128H3.813l8.047 8.032c.43.444.43 1.16 0 1.587a1.112 1.112 0 0 1-1.587 0L.32 16.532a1.12 1.12 0 0 1 0-1.57l9.953-9.953z" fill="#1E201D"/></symbol><symbol id="temp-icon-right-arrow" viewBox="0 0 31.49 31.49"><path d="M21.205 5.007a1.117 1.117 0 0 0-1.587 1.57l8.047 8.048H1.11c-.618 0-1.11.493-1.11 1.112 0 .62.492 1.127 1.11 1.127h26.555l-8.047 8.032c-.43.444-.43 1.16 0 1.587.444.444 1.16.444 1.587 0l9.952-9.952a1.092 1.092 0 0 0 0-1.57l-9.952-9.95z" fill="#1E201D"/></symbol></svg>